<svg width="16" height="16" viewBox="0 0 16 16" fill="none" xmlns="http://www.w3.org/2000/svg">
<path d="M15.7998 3C15.9103 3 16 3.08974 16 3.2002V12.7998C16 12.9103 15.9103 13 15.7998 13H0.200195C0.0897384 13 0 12.9103 0 12.7998V3.2002C0 3.08974 0.0897384 3 0.200195 3H15.7998ZM9.90039 3.09961C7.19435 3.09964 5.00021 5.294 5 8L5.00684 8.25195C5.13392 10.7572 7.14223 12.7663 9.64746 12.8936L9.90039 12.8994C12.5218 12.8992 14.6626 10.8408 14.7939 8.25195L14.7998 8C14.7996 5.37862 12.7411 3.23778 10.1523 3.10645L9.90039 3.09961ZM9.90039 4.09961C12.054 4.09982 13.7996 5.8464 13.7998 8C13.7996 10.1536 12.054 11.8992 9.90039 11.8994C7.74662 11.8994 6.0002 10.1537 6 8C6.00021 5.84628 7.74663 4.09964 9.90039 4.09961ZM9.90039 5C8.24354 5 6.9004 6.34315 6.90039 8L6.9043 8.1543C6.98203 9.68833 8.21206 10.9184 9.74609 10.9961L9.90039 11C11.5053 10.9998 12.8162 9.73932 12.8965 8.1543L12.9004 8C12.9004 6.39503 11.6396 5.08441 10.0547 5.00391L9.90039 5ZM9.90039 6C11.0048 6.00021 11.9004 6.89557 11.9004 8C11.9004 9.10443 11.0048 9.99979 9.90039 10C8.79583 10 7.9004 9.10456 7.90039 8C7.9004 6.89544 8.79583 6 9.90039 6ZM2.5 3.5C2.22386 3.5 2 3.72386 2 4C2 4.27614 2.22386 4.5 2.5 4.5H5C5.27614 4.5 5.5 4.27614 5.5 4C5.5 3.72386 5.27614 3.5 5 3.5H2.5Z" fill="white"/>
</svg>
